<?xml version="1.0" encoding="UTF-8"?>
<svg width="53px" height="50px" viewBox="0 0 53 50" version="1.1" xmlns="http://www.w3.org/2000/svg" xmlns:xlink="http://www.w3.org/1999/xlink">
    <!-- Generator: Sketch 49.3 (51167) - http://www.bohemiancoding.com/sketch -->
    <title>Page 1@2x</title>
    <desc>Created with Sketch.</desc>
    <defs></defs>
    <g id="世界杯5.21-定稿" stroke="none" stroke-width="1" fill="none" fill-rule="evenodd">
        <g id="2-7-2积分不足" transform="translate(-162.000000, -166.000000)">
            <g id="Page-1" transform="translate(162.000000, 166.000000)">
                <path d="M50.9868113,16.5955429 L41.1183902,16.5955429 C40.6808902,16.5955429 40.2632299,16.7689426 39.9539165,17.0732101 L37.1479955,19.8672357 L32.894706,19.8672357 L32.894706,18.2313893 C32.894706,17.3284021 32.1578639,16.5955429 31.2499692,16.5955429 L16.4473376,16.5955429 C7.37825863,16.5955429 -3.08388158e-05,23.9339497 -3.08388158e-05,32.9540066 C-3.08388158e-05,41.9740635 7.37825863,49.3124704 16.4473376,49.3124704 C24.5920744,49.3124704 31.4078639,43.4790422 32.6908614,35.5844476 L51.6053351,27.9254149 C52.2269428,27.6734945 52.6315481,27.0747748 52.6315481,26.4106211 L52.6315481,18.2313893 C52.6315481,17.3284021 51.894706,16.5955429 50.9868113,16.5955429" id="Fill-1" fill="#FFE236"></path>
                <path d="M16.3584637,24.6562352 C20.9412192,24.6562352 24.6562352,28.3712512 24.6562352,32.9540066 C24.6562352,37.5367621 20.9412192,41.2517781 16.3584637,41.2517781 C11.7757083,41.2517781 8.06069227,37.5367621 8.06069227,32.9540066 C8.06069227,28.3712512 11.7757083,24.6562352 16.3584637,24.6562352" id="Fill-4" fill="#F7A62D"></path>
                <path d="M36.2731152,12.802276 C35.3570413,12.802276 34.6135609,12.0853485 34.6135609,11.2019915 L34.6135609,1.6002845 C34.6135609,0.716927454 35.3570413,0 36.2731152,0 C37.1891892,0 37.9326695,0.716927454 37.9326695,1.6002845 L37.9326695,11.2019915 C37.9326695,12.0853485 37.1891892,12.802276 36.2731152,12.802276" id="Fill-6" fill="#FFE236"></path>
                <path d="M29.2088814,13.2764343 C28.7188801,13.2764343 28.235126,13.0474529 27.9191392,12.6127199 L23.0826062,5.97557585 C22.5474639,5.24217143 22.6924592,4.20345838 23.4050417,3.65257542 C24.1143999,3.10169246 25.1268475,3.24770963 25.6620905,3.98443262 L30.4986235,10.6215767 C31.0306422,11.3549811 30.8887705,12.3936942 30.1762887,12.9445771 C29.8860968,13.1669215 29.5442143,13.2764343 29.2088814,13.2764343" id="Fill-8" fill="#FFE236"></path>
                <path d="M42.391134,13.2764343 C42.0557815,13.2764343 41.7139798,13.1668901 41.4237709,12.9444822 C40.7111468,12.3934418 40.5661431,11.3544317 41.098092,10.6208176 L45.9349074,3.98177561 C46.4735069,3.24484195 47.4826883,3.10542207 48.1920879,3.64982351 C48.9048128,4.20086399 49.0498165,5.23987406 48.5177668,5.97348819 L43.6809514,12.6125301 C43.3649461,13.0473874 42.8780401,13.2764343 42.391134,13.2764343" id="Fill-10" fill="#FFE236"></path>
            </g>
        </g>
    </g>
</svg>