<?xml version="1.0" encoding="UTF-8"?>
<svg width="30px" height="37px" viewBox="0 0 30 37" version="1.1" xmlns="http://www.w3.org/2000/svg" xmlns:xlink="http://www.w3.org/1999/xlink">
    <!-- Generator: Sketch 49.3 (51167) - http://www.bohemiancoding.com/sketch -->
    <title>Page 1@2x</title>
    <desc>Created with Sketch.</desc>
    <defs>
        <polygon id="path-1" points="6.47482014e-05 0.209136691 29.8405683 0.209136691 29.8405683 30.0498129 6.47482014e-05 30.0498129"></polygon>
    </defs>
    <g id="世界杯5.21-定稿" stroke="none" stroke-width="1" fill="none" fill-rule="evenodd">
        <g id="2-6积分排行榜" transform="translate(-287.000000, -240.000000)">
            <g id="Page-1" transform="translate(287.000000, 240.000000)">
                <polygon id="Fill-1" fill="#16B09C" points="1.45139568 32.7359137 6.48103597 32.2710216 8.91535252 36.6974245 14.4539137 26.2623885 6.99017266 22.3006619"></polygon>
                <polygon id="Fill-2" fill="#16B09C" points="15.3866978 26.2623237 20.925259 36.6973597 23.3595755 32.2711727 28.3892158 32.7358489 22.8506547 22.3008129"></polygon>
                <g id="Group-14" transform="translate(0.000000, 0.006691)">
                    <g id="Group-5">
                        <mask id="mask-2" fill="white">
                            <use xlink:href="#path-1"></use>
                        </mask>
                        <g id="Clip-4"></g>
                        <path d="M14.9202086,0.209093525 C23.1607122,0.209093525 29.8405683,6.88916547 29.8405683,15.1294532 C29.8405683,23.369741 23.1607122,30.0498129 14.9202086,30.0498129 C6.67992086,30.0498129 6.47482014e-05,23.369741 6.47482014e-05,15.1294532 C6.47482014e-05,6.88916547 6.67992086,0.209093525 14.9202086,0.209093525" id="Fill-3" fill="#AD7881" mask="url(#mask-2)"></path>
                    </g>
                    <path d="M14.9202086,27.5180935 C8.08819424,27.5180935 2.53064029,21.9590288 2.53064029,15.1283094 C2.53064029,8.29758993 8.08819424,2.74003597 14.9202086,2.74003597 C21.7524388,2.74003597 27.3099928,8.29910072 27.3099928,15.1298201 C27.3099928,21.9605396 21.7524388,27.5180935 14.9202086,27.5180935" id="Fill-6" fill="#E0C7C6"></path>
                    <path d="M8.48544604,21.2670216 C8.51220863,21.0535683 8.63371942,20.8694676 8.69242446,20.6700432 C8.7487554,20.4693237 8.75242446,20.2571655 8.75005036,20.0424173 C8.74357554,19.8263741 8.72954676,19.6103309 8.66069784,19.3711942 C8.64148921,19.3608345 8.62098561,19.3532806 8.60048201,19.3457266 C8.433,19.4976691 8.33458273,19.6793957 8.25645324,19.8710504 C8.18242446,20.064 8.12889928,20.2673094 8.14271223,20.4947914 C8.15803597,20.7237842 8.25148921,20.9754388 8.26422302,21.2018417 C8.26681295,21.2311942 8.25904317,21.2594676 8.26033813,21.2875252 C7.83084173,20.7198993 7.46393525,20.117741 7.16091367,19.4911942 C7.16846763,19.3647194 7.18767626,19.2445036 7.23386331,19.1385324 C7.30789209,18.9544317 7.46523022,18.8163022 7.56494245,18.6488201 C7.66335971,18.4813381 7.71192086,18.2896835 7.75400719,18.0939281 C7.79242446,17.8957986 7.82328777,17.695295 7.80407914,17.4598273 C7.78616547,17.4483885 7.76695683,17.4369496 7.74904317,17.4242158 C7.55846763,17.525223 7.42702878,17.6670216 7.31199281,17.8230647 C7.20192086,17.981482 7.10717266,18.1528489 7.07134532,18.3624173 C7.03832374,18.5734964 7.07134532,18.822777 7.03422302,19.0284604 C7.02796403,19.0681727 7.01005036,19.102705 6.99990647,19.1411223 C6.72386331,18.5145755 6.50911511,17.866446 6.35695683,17.2055827 C6.39148921,17.0624892 6.4387554,16.9293237 6.51666906,16.8246475 C6.62393525,16.6750791 6.80307194,16.5868058 6.93084173,16.459036 C7.05753237,16.3286763 7.1406259,16.1648633 7.2172446,15.9934964 C7.29148921,15.8184604 7.3577482,15.6395396 7.38084173,15.4144317 C7.36551799,15.3991079 7.35019424,15.3837842 7.3348705,15.3684604 C7.13544604,15.4157266 6.98328777,15.5167338 6.84515827,15.6330647 C6.70961871,15.7519856 6.58832374,15.8901151 6.51278417,16.0729209 C6.43983453,16.2581007 6.42321583,16.4961583 6.34659712,16.6750791 C6.32738849,16.7236403 6.29674101,16.7607626 6.27105755,16.8041439 C6.1458777,16.1495396 6.08069784,15.4847914 6.07681295,14.8187482 C6.14458273,14.6616259 6.22379137,14.5183165 6.33904317,14.4235683 C6.46940288,14.3111223 6.6535036,14.275295 6.79789209,14.1872374 C6.94120144,14.0976691 7.04976259,13.9621295 7.15335971,13.8203309 C7.25436691,13.6733525 7.34889928,13.5186043 7.41148921,13.3088201 C7.40005036,13.2898273 7.38861151,13.2719137 7.37695683,13.252705 C7.1801223,13.2475252 7.02041007,13.307741 6.86954676,13.3830647 C6.72105755,13.4635683 6.58055396,13.5606906 6.47695683,13.7167338 C6.37357554,13.8740719 6.31465468,14.092705 6.20846763,14.2409784 C6.17264029,14.2932086 6.12796403,14.3316259 6.08458273,14.3726331 C6.10746043,13.7219137 6.18796403,13.0724892 6.32609353,12.4306187 C6.33256835,12.4204748 6.33904317,12.4114101 6.34530216,12.4012662 C6.44868345,12.2439281 6.56393525,12.1047194 6.70853957,12.0343597 C6.85033813,11.9601151 7.02666906,11.9743597 7.17753237,11.9257986 C7.32710072,11.8759424 7.4524964,11.7736403 7.57508633,11.6596835 C7.69530216,11.5420576 7.81163309,11.4155827 7.91005036,11.225223 C7.9024964,11.2047194 7.89623741,11.1829209 7.8882518,11.1611223 C7.70803597,11.1088921 7.54961871,11.1278849 7.39616547,11.1637122 C7.24400719,11.2047194 7.09594964,11.2647194 6.97033813,11.3888201 C6.84515827,11.515295 6.74803597,11.7110504 6.62134532,11.8234964 C6.56630935,11.8759424 6.50630935,11.910259 6.44371942,11.9437122 C6.6124964,11.3070216 6.84148921,10.6804748 7.12767626,10.0733525 C7.13264029,10.0809065 7.13933094,10.0873813 7.14429496,10.0949353 C7.16846763,10.0694676 7.19436691,10.0450791 7.21853957,10.0196115 C7.34630935,9.89313669 7.47925899,9.78694964 7.62386331,9.75500719 C7.7682518,9.71788489 7.9253741,9.77529496 8.07127338,9.76385612 C8.21695683,9.7511223 8.3524964,9.68076259 8.48803597,9.59766906 C8.62228058,9.50939568 8.75523022,9.41097842 8.88558993,9.24479137 C8.88429496,9.22191367 8.88170504,9.19882014 8.88041007,9.17702158 C8.7282518,9.08378417 8.58127338,9.06457554 8.433,9.06457554 C8.28602158,9.06846043 8.13904317,9.09284892 7.99832374,9.18479137 C7.85782014,9.27953957 7.7272446,9.44680576 7.58933094,9.52623022 C7.52134532,9.56831655 7.44990647,9.59270504 7.3782518,9.60781295 C7.38084173,9.594 7.38084173,9.58105036 7.38343165,9.56702158 C7.8487554,8.70284892 8.44055396,7.88594245 9.16033813,7.14198561 C8.47897122,7.80025899 7.89990647,8.52651799 7.42163309,9.29982734 C7.42292806,9.27673381 7.43328777,9.24997122 7.43328777,9.2268777 C7.44472662,9.06069065 7.4524964,8.89579856 7.43717266,8.73997122 C7.38731655,8.43435971 7.30400719,8.13910791 7.07803597,7.88982734 C7.05343165,7.89867626 7.02925899,7.90774101 7.00508633,7.91658993 C6.76465468,8.33982734 6.70184892,8.70910791 6.70055396,9.04666187 C6.71091367,9.21176978 6.74803597,9.36241727 6.79789209,9.50702158 C6.83868345,9.65658993 6.91292806,9.7882446 7.00508633,9.90953957 C7.01782014,9.92745324 7.03055396,9.94428777 7.04458273,9.96220144 C6.7711295,10.4823453 6.54084173,11.0219137 6.35566187,11.5729209 C6.35436691,11.567741 6.35566187,11.5612662 6.35436691,11.5550072 C6.3172446,11.3849353 6.28141727,11.2124892 6.22638129,11.0525612 C6.09861151,10.7445755 5.94278417,10.4516978 5.6587554,10.2330647 C5.63717266,10.2470935 5.61666906,10.2611223 5.5948705,10.2753669 C5.46580576,10.7609784 5.49645324,11.1587482 5.58343165,11.509036 C5.63458273,11.6775971 5.7124964,11.8273813 5.79947482,11.9678849 C5.87868345,12.1148633 5.98746043,12.2376691 6.11005036,12.3462302 C6.11393525,12.3488201 6.11782014,12.352705 6.12041007,12.355295 C5.97969065,12.9024173 5.87997842,13.4586043 5.82364748,14.0197554 C5.74832374,13.8548633 5.67170504,13.6910504 5.57954676,13.5440719 C5.37235252,13.2501151 5.14379137,12.9753669 4.80602158,12.7988201 C4.78810791,12.8167338 4.77041007,12.8346475 4.7524964,12.8538561 C4.74472662,13.3804748 4.87638129,13.7845036 5.05292806,14.1296115 C5.1487554,14.2945036 5.26508633,14.4339281 5.38897122,14.5619137 C5.4977482,14.6870935 5.62961871,14.7816259 5.76882734,14.8660144 C5.75479856,15.4196115 5.78026619,15.9755827 5.84803597,16.5278849 C5.73558993,16.3847914 5.62422302,16.2404029 5.50163309,16.1163022 C5.21652518,15.8555827 4.91479856,15.6151511 4.53127338,15.4912662 C4.5172446,15.5128489 4.50451079,15.5346475 4.49026619,15.556446 C4.61307194,16.0970935 4.85091367,16.4870935 5.11918705,16.8054388 C5.25882734,16.9563022 5.41335971,17.0763022 5.57328777,17.1824892 C5.70105755,17.2785324 5.84436691,17.3398273 5.98983453,17.3948633 C6.09861151,17.9342158 6.24817986,18.4673094 6.43746043,18.991554 C6.29307194,18.8763022 6.15105755,18.7586763 6.00148921,18.660259 C5.64084173,18.4493957 5.27134532,18.2601151 4.84702878,18.204 C4.83817986,18.2281727 4.83041007,18.2525612 4.82134532,18.2769496 C5.08357554,18.8048633 5.42609353,19.156446 5.78544604,19.4275252 C5.9682518,19.554 6.15882734,19.6446475 6.35177698,19.721482 C6.4924964,19.7853669 6.63925899,19.8134245 6.78515827,19.8404029 C7.01523022,20.3441439 7.28609353,20.8349353 7.59558993,21.3078129 C7.42422302,21.2262302 7.25436691,21.1392518 7.083,21.0753669 C6.6535036,20.9346475 6.22141727,20.8131367 5.76753237,20.8323453 C5.76494245,20.8593237 5.76235252,20.8847914 5.75976259,20.9117698 C6.16508633,21.3973813 6.61379137,21.6850791 7.05882734,21.8870935 C7.28242446,21.977741 7.50623741,22.031482 7.72853957,22.0698993 C7.87422302,22.1018417 8.01753237,22.0966619 8.16192086,22.0979568 C8.40235252,22.4048633 8.66177698,22.7014101 8.93803597,22.9878129 C9.0835036,22.8421295 9.23069784,22.6951511 9.37638129,22.5492518 C9.05803597,22.2425612 8.76278417,21.919036 8.48933094,21.5840719 C8.47508633,21.474 8.4701223,21.3680288 8.48544604,21.2670216" id="Fill-8" fill="#AD7881"></path>
                    <path d="M23.8391223,18.6577986 C23.6897698,18.7562158 23.5475396,18.8738417 23.4031511,18.9888777 C23.5924317,18.4646331 23.742,17.9317554 23.850777,17.3921871 C23.9964604,17.3371511 24.1397698,17.2758561 24.2673237,17.1800288 C24.4272518,17.0738417 24.5817842,16.9536259 24.7214245,16.8027626 C24.9896978,16.4846331 25.2275396,16.0946331 25.3503453,15.5537698 C25.3363165,15.5321871 25.3233669,15.5103885 25.3093381,15.4885899 C24.9258129,15.6126906 24.6243022,15.8529065 24.3389784,16.1138417 C24.2163885,16.2377266 24.1050216,16.3823309 23.9925755,16.5254245 C24.0603453,15.9731223 24.0860288,15.4169353 24.0717842,14.863554 C24.2112086,14.7791655 24.3428633,14.6844173 24.4516403,14.5592374 C24.5755252,14.4312518 24.6918561,14.2920432 24.7878993,14.1271511 C24.9642302,13.7820432 25.0958849,13.3780144 25.0881151,12.8511799 C25.0702014,12.833482 25.0522878,12.8155683 25.0345899,12.7976547 C24.697036,12.9739856 24.468259,13.2487338 24.2610647,13.5429065 C24.1689065,13.6898849 24.0922878,13.853482 24.0167482,14.0183741 C23.9606331,13.457223 23.8609209,12.9012518 23.7202014,12.3539137 C23.7227914,12.3513237 23.7266763,12.3476547 23.7305612,12.3450647 C23.8531511,12.2365036 23.9619281,12.1136978 24.0413525,11.9667194 C24.1281151,11.826 24.2060288,11.6764317 24.2571799,11.5076547 C24.3428633,11.1573669 24.3737266,10.7598129 24.244446,10.2739856 C24.2226475,10.2599568 24.2010647,10.247223 24.1792662,10.2329784 C23.8954532,10.4518273 23.7394101,10.7444892 23.6116403,11.0524748 C23.5566043,11.2124029 23.520777,11.3848489 23.4862446,11.5575108 C23.4849496,11.5639856 23.4862446,11.5702446 23.4849496,11.5754245 C23.2997698,11.0244173 23.0696978,10.4848489 22.7960288,9.96470504 C22.8100576,9.94679137 22.8227914,9.93017266 22.835741,9.91225899 C22.9276835,9.7907482 23.0017122,9.65909353 23.0429353,9.50952518 C23.0925755,9.36492086 23.1296978,9.21427338 23.1400576,9.04916547 C23.1385468,8.71182734 23.0759568,8.34233094 22.835741,7.91909353 C22.8113525,7.9102446 22.786964,7.90139568 22.7627914,7.89233094 C22.5366043,8.14161151 22.453295,8.43686331 22.4036547,8.74247482 C22.3881151,8.89851799 22.3958849,9.06341007 22.4073237,9.22959712 C22.4073237,9.25247482 22.4176835,9.27945324 22.4189784,9.30233094 C21.940705,8.52902158 21.3616403,7.80276259 20.6802734,7.14448921 C21.3998417,7.88844604 21.9918561,8.70535252 22.4573957,9.56952518 C22.4586906,9.58247482 22.4597698,9.5965036 22.4623597,9.60923741 C22.390705,9.59391367 22.3192662,9.56952518 22.2514964,9.52743885 C22.1133669,9.44823022 21.9827914,9.2807482 21.8422878,9.186 C21.7017842,9.09405755 21.5545899,9.06966906 21.4076115,9.066 C21.2593381,9.066 21.1123597,9.08499281 20.9602014,9.17844604 C20.9589065,9.2002446 20.9565324,9.2231223 20.9552374,9.24621583 C21.0853813,9.41240288 21.2183309,9.51082014 21.3525755,9.5988777 C21.4881151,9.68218705 21.6236547,9.75233094 21.7693381,9.76506475 C21.9152374,9.77671942 22.0723597,9.71909353 22.2167482,9.75621583 C22.3613525,9.78815827 22.4943022,9.89434532 22.6220719,10.0208201 C22.6464604,10.0465036 22.6721439,10.0706763 22.6963165,10.0963597 C22.7014964,10.0885899 22.7077554,10.0823309 22.7129353,10.0745612 C23.0004173,10.6816835 23.2281151,11.3082302 23.3943022,11.9436259 C23.3314964,11.9103885 23.2714964,11.8758561 23.2164604,11.8234101 C23.0899856,11.710964 22.9928633,11.5154245 22.8676835,11.3887338 C22.7422878,11.2648489 22.5940144,11.2046331 22.4418561,11.1638417 C22.2884029,11.1280144 22.1299856,11.1088058 21.9497698,11.1612518 C21.942,11.1830504 21.935741,11.2046331 21.9279712,11.2251367 C22.0266043,11.4154964 22.1427194,11.5421871 22.2629353,11.6598129 C22.385741,11.773554 22.5109209,11.8758561 22.6604892,11.9257122 C22.8113525,11.9742734 22.9878993,11.9602446 23.1296978,12.0344892 C23.2740863,12.1046331 23.3891223,12.2440576 23.4929353,12.4011799 C23.4991942,12.4115396 23.5054532,12.4203885 23.5119281,12.4305324 C23.6500576,13.0724029 23.7305612,13.7218273 23.7536547,14.3725468 C23.7100576,14.3317554 23.6651655,14.2933381 23.629554,14.2408921 C23.5233669,14.0926187 23.4646619,13.8739856 23.3610647,13.7166475 C23.2576835,13.5608201 23.1167482,13.4636978 22.9686906,13.3831942 C22.8178273,13.3076547 22.6578993,13.2476547 22.4610647,13.2528345 C22.4496259,13.2718273 22.4381871,13.289741 22.4265324,13.3089496 C22.4891223,13.518518 22.5838705,13.6732662 22.6846619,13.8202446 C22.7884748,13.962259 22.897036,14.0977986 23.0401295,14.1871511 C23.1847338,14.2754245 23.3686187,14.3112518 23.4991942,14.4236978 C23.6142302,14.5182302 23.6934388,14.6615396 23.7612086,14.8186619 C23.7573237,15.484705 23.6921439,16.1494532 23.5667482,16.8040576 C23.5412806,16.7606763 23.5108489,16.723554 23.4916403,16.6749928 C23.4148058,16.4960719 23.3981871,16.2582302 23.3252374,16.0728345 C23.2499137,15.8900288 23.1284029,15.7521151 22.9928633,15.6329784 C22.8547338,15.5166475 22.7025755,15.4158561 22.5033669,15.3683741 C22.4878273,15.3839137 22.4725036,15.3990216 22.4573957,15.4145612 C22.4802734,15.6394532 22.5467482,15.8183741 22.620777,15.9936259 C22.6976115,16.1649928 22.780705,16.3285899 22.9073957,16.4589496 C23.0349496,16.5867194 23.2140863,16.6749928 23.3215683,16.8245612 C23.399482,16.9294532 23.4467482,17.0624029 23.4812806,17.2054964 C23.3291223,17.8663597 23.1143741,18.5144892 22.8381151,19.141036 C22.8279712,19.1028345 22.8100576,19.0680863 22.8035827,19.0285899 C22.7664604,18.8226906 22.7999137,18.5734101 22.7664604,18.3625468 C22.7308489,18.1527626 22.6363165,17.9816115 22.5262446,17.8229784 C22.4112086,17.6671511 22.279554,17.5251367 22.0891942,17.4241295 C22.0712806,17.4368633 22.0520719,17.4483022 22.0341583,17.4599568 C22.0149496,17.6952086 22.0455971,17.8959281 22.0837986,18.0940576 C22.1261007,18.2895971 22.1746619,18.4814676 22.2730791,18.6487338 C22.3727914,18.8162158 22.5301295,18.9543453 22.6041583,19.138446 C22.6501295,19.2446331 22.6693381,19.3646331 22.6771079,19.4913237 C22.3740863,20.1178705 22.0073957,20.7198129 21.5776835,21.2874388 C21.5789784,21.2593813 21.5712086,21.2313237 21.5737986,21.2019712 C21.5865324,20.9755683 21.6799856,20.7236978 21.6953094,20.4949209 C21.7093381,20.2674388 21.6558129,20.0641295 21.5815683,19.870964 C21.5036547,19.6793094 21.4052374,19.4977986 21.2375396,19.3456403 C21.2172518,19.3531942 21.1967482,19.360964 21.1801295,19.368518 C21.1110647,19.6076547 21.097036,19.8236978 21.090777,20.039741 C21.0879712,20.2544892 21.0918561,20.4666475 21.1481871,20.6675827 C21.2071079,20.8667914 21.3284029,21.0508921 21.3551655,21.2645612 C21.3704892,21.3653525 21.3655252,21.4715396 21.3514964,21.5813957 C21.0778273,21.9165755 20.7825755,22.2398849 20.4642302,22.5467914 C20.6099137,22.6924748 20.7568921,22.8394532 20.9027914,22.9851367 C21.1788345,22.6989496 21.438259,22.4024029 21.6786906,22.0954964 C21.8230791,22.0942014 21.9661727,22.0993813 22.1120719,22.067223 C22.3343741,22.0290216 22.5581871,21.9752806 22.782,21.8846331 C23.2268201,21.6826187 23.6755252,21.3949209 24.0808489,20.9090935 C24.078259,20.8823309 24.0756691,20.8566475 24.0730791,20.8298849 C23.6191942,20.8106763 23.1871079,20.9321871 22.7576115,21.0726906 C22.5862446,21.1365755 22.4161727,21.223554 22.2450216,21.3053525 C22.554518,20.8324748 22.8253813,20.3414676 23.0554532,19.8377266 C23.2013525,19.810964 23.3483309,19.7826906 23.4888345,19.7190216 C23.6817842,19.6421871 23.8723597,19.5515396 24.0551655,19.4248489 C24.414518,19.1537698 24.757036,18.8021871 25.0192662,18.2742734 C25.0102014,18.2498849 25.0026475,18.2257122 24.9935827,18.2013237 C24.5692662,18.2576547 24.1997698,18.4467194 23.8391223,18.6577986" id="Fill-10" fill="#AD7881"></path>
                    <path d="M17.0639568,20.503295 C16.5215827,21.0115683 15.7251799,21.2658129 14.9117266,21.2658129 C14.0982734,21.2658129 13.2848201,21.0115683 12.7426619,20.4864604 C12.2002878,19.9777554 11.9121583,19.3678273 11.9121583,18.3171799 L11.9121583,17.6731511 L14.1828777,17.6731511 L14.1828777,18.402 C14.1828777,18.9609928 14.5051079,19.2320719 14.9117266,19.2320719 C15.1828058,19.2320719 15.3522302,19.0796978 15.4541007,18.9441583 C15.6744604,18.6560288 15.6574101,17.8425755 15.6574101,17.4527914 C15.6574101,17.0630072 15.6744604,16.3512086 15.4709353,16.0294101 C15.3522302,15.8597698 15.1828058,15.7412806 14.8946763,15.7412806 L14.352518,15.7412806 L14.352518,13.8430791 L14.8946763,13.8430791 C15.1152518,13.8430791 15.2676259,13.7584748 15.3692806,13.6397698 C15.6064748,13.3516403 15.5728058,12.724446 15.5728058,12.3687626 C15.5728058,12.0296978 15.6064748,11.4875396 15.4033813,11.1994101 C15.3015108,11.0636547 15.1659712,10.962 14.9117266,10.962 C14.5558273,10.962 14.2676978,11.1994101 14.2676978,11.6906331 L14.2676978,12.5211367 L11.9967626,12.5211367 L11.9967626,11.843223 C11.9967626,10.8603453 12.2848921,10.199482 12.8272662,9.69099281 C13.3696403,9.16566906 14.0982734,8.92847482 14.9117266,8.92847482 C15.8270504,8.92847482 16.5047482,9.19955396 16.9791367,9.67415827 C17.572446,10.2502014 17.8435252,11.1484748 17.8435252,12.1991223 C17.8435252,12.8263165 17.8266906,13.453295 17.5553957,14.029554 C17.4028058,14.334518 17.1826619,14.5887626 16.8945324,14.7920719 C17.1997122,15.029482 17.4369065,15.2835108 17.6063309,15.605741 C17.9283453,16.2327194 17.9283453,16.944518 17.9283453,17.6222158 C17.9283453,18.706964 17.9451799,19.6727914 17.0639568,20.503295" id="Fill-12" fill="#8C555B"></path>
                </g>
            </g>
        </g>
    </g>
</svg>