<?xml version="1.0" encoding="UTF-8"?>
<svg width="50px" height="62px" viewBox="0 0 50 62" version="1.1" xmlns="http://www.w3.org/2000/svg" xmlns:xlink="http://www.w3.org/1999/xlink">
    <!-- Generator: Sketch 49.3 (51167) - http://www.bohemiancoding.com/sketch -->
    <title>Page 1@2x</title>
    <desc>Created with Sketch.</desc>
    <defs>
        <polygon id="path-1" points="0.000107913669 0.348561151 49.7342806 0.348561151 49.7342806 50.0830216 0.000107913669 50.0830216"></polygon>
    </defs>
    <g id="世界杯5.21-定稿" stroke="none" stroke-width="1" fill="none" fill-rule="evenodd">
        <g id="2-6积分排行榜" transform="translate(-163.000000, -228.000000)">
            <g id="Page-1" transform="translate(163.000000, 228.000000)">
                <polygon id="Fill-1" fill="#E42E54" points="2.41899281 54.5598561 10.8017266 53.785036 14.8589209 61.1623741 24.0898561 43.7706475 11.6502878 37.1677698"></polygon>
                <polygon id="Fill-2" fill="#E42E54" points="25.6444964 43.7705396 34.8754317 61.1622662 38.9326259 53.7852878 47.3153597 54.5597482 38.0844245 37.1680216"></polygon>
                <g id="Group-14" transform="translate(0.000000, 0.011151)">
                    <g id="Group-5">
                        <mask id="mask-2" fill="white">
                            <use xlink:href="#path-1"></use>
                        </mask>
                        <g id="Clip-4"></g>
                        <path d="M24.8670144,0.348489209 C38.6011871,0.348489209 49.7342806,11.4819424 49.7342806,25.2157554 C49.7342806,38.9495683 38.6011871,50.0830216 24.8670144,50.0830216 C11.1332014,50.0830216 0.000107913669,38.9495683 0.000107913669,25.2157554 C0.000107913669,11.4819424 11.1332014,0.348489209 24.8670144,0.348489209" id="Fill-3" fill="#FFB82C" mask="url(#mask-2)"></path>
                    </g>
                    <path d="M24.8670144,45.8634892 C13.4803237,45.8634892 4.21773381,36.5983813 4.21773381,25.2138489 C4.21773381,13.8293165 13.4803237,4.56672662 24.8670144,4.56672662 C36.2540647,4.56672662 45.5166547,13.8318345 45.5166547,25.2163669 C45.5166547,36.6008993 36.2540647,45.8634892 24.8670144,45.8634892" id="Fill-6" fill="#FFE98D"></path>
                    <path d="M14.1424101,35.445036 C14.1870144,35.0892806 14.3895324,34.782446 14.4873741,34.4500719 C14.581259,34.1155396 14.5873741,33.7619424 14.5834173,33.4040288 C14.5726259,33.0439568 14.5492446,32.6838849 14.4344964,32.2853237 C14.402482,32.2680576 14.3683094,32.2554676 14.3341367,32.2428777 C14.055,32.4961151 13.8909712,32.7989928 13.7607554,33.1184173 C13.6373741,33.44 13.5481655,33.7788489 13.5711871,34.1579856 C13.5967266,34.5396403 13.752482,34.9590647 13.773705,35.3364029 C13.7780216,35.3853237 13.7650719,35.432446 13.7672302,35.4792086 C13.0514029,34.5331655 12.4398921,33.5295683 11.9348561,32.4853237 C11.947446,32.2745324 11.9794604,32.0741727 12.0564388,31.897554 C12.1798201,31.5907194 12.4420504,31.3605036 12.6082374,31.0813669 C12.7722662,30.8022302 12.8532014,30.4828058 12.9233453,30.1565468 C12.9873741,29.8263309 13.0388129,29.4921583 13.0067986,29.0997122 C12.9769424,29.0806475 12.9449281,29.0615827 12.9150719,29.0403597 C12.597446,29.208705 12.3783813,29.445036 12.1866547,29.7051079 C12.0032014,29.9691367 11.8452878,30.2547482 11.7855755,30.6040288 C11.7305396,30.9558273 11.7855755,31.371295 11.723705,31.7141007 C11.7132734,31.7802878 11.6834173,31.8378417 11.6665108,31.9018705 C11.2064388,30.8576259 10.8485252,29.7774101 10.5949281,28.6759712 C10.652482,28.437482 10.731259,28.2155396 10.8611151,28.0410791 C11.0398921,27.7917986 11.3384532,27.6446763 11.5514029,27.4317266 C11.762554,27.2144604 11.9010432,26.9414388 12.028741,26.6558273 C12.152482,26.3641007 12.2629137,26.0658993 12.3014029,25.6907194 C12.2758633,25.6651799 12.2503237,25.6396403 12.2247842,25.6141007 C11.8924101,25.6928777 11.6388129,25.861223 11.4085971,26.0551079 C11.1826978,26.2533094 10.9805396,26.4835252 10.8546403,26.7882014 C10.7330576,27.0968345 10.7053597,27.4935971 10.5776619,27.7917986 C10.5456475,27.8727338 10.4945683,27.9346043 10.4517626,28.0069065 C10.2431295,26.9158993 10.1344964,25.8079856 10.1280216,24.6979137 C10.2409712,24.4360432 10.3729856,24.1971942 10.5650719,24.0392806 C10.7823381,23.8518705 11.0891727,23.7921583 11.3298201,23.6453957 C11.5686691,23.4961151 11.7496043,23.2702158 11.9222662,23.0338849 C12.0906115,22.7889209 12.2481655,22.5310072 12.352482,22.1813669 C12.3334173,22.1497122 12.3143525,22.1198561 12.2949281,22.0878417 C11.9668705,22.0792086 11.7006835,22.1795683 11.4492446,22.3051079 C11.2017626,22.4392806 10.9675899,22.6011511 10.7949281,22.861223 C10.6226259,23.1234532 10.5244245,23.4878417 10.347446,23.734964 C10.2877338,23.8220144 10.2132734,23.8860432 10.1409712,23.9543885 C10.1791007,22.8698561 10.3132734,21.787482 10.5434892,20.7176978 C10.5542806,20.7007914 10.5650719,20.6856835 10.5755036,20.668777 C10.7478058,20.4065468 10.9398921,20.1745324 11.1808993,20.0572662 C11.4172302,19.9335252 11.7111151,19.9572662 11.962554,19.8763309 C12.2118345,19.7932374 12.4208273,19.6227338 12.6251439,19.4328058 C12.8255036,19.2367626 13.0193885,19.0259712 13.1834173,18.708705 C13.1708273,18.6745324 13.1603957,18.6382014 13.1470863,18.6018705 C12.8467266,18.5148201 12.5826978,18.5464748 12.3269424,18.6061871 C12.0733453,18.6745324 11.8265827,18.7745324 11.6172302,18.9813669 C11.4085971,19.1921583 11.2467266,19.5184173 11.0355755,19.7058273 C10.9438489,19.7932374 10.8438489,19.8504317 10.7395324,19.9061871 C11.0208273,18.845036 11.402482,17.8007914 11.8794604,16.7889209 C11.8877338,16.8015108 11.8988849,16.8123022 11.9071583,16.8248921 C11.947446,16.782446 11.9906115,16.7417986 12.0308993,16.6993525 C12.2438489,16.4885612 12.4654317,16.3115827 12.7064388,16.2583453 C12.9470863,16.1964748 13.2089568,16.2921583 13.4521223,16.2730935 C13.6949281,16.2518705 13.9208273,16.1346043 14.1467266,15.9961151 C14.3704676,15.8489928 14.5920504,15.684964 14.8093165,15.4079856 C14.8071583,15.3698561 14.8028417,15.3313669 14.8006835,15.295036 C14.5470863,15.1396403 14.3021223,15.1076259 14.055,15.1076259 C13.810036,15.1141007 13.5650719,15.1547482 13.3305396,15.3079856 C13.0963669,15.4658993 12.878741,15.7446763 12.6488849,15.8770504 C12.5355755,15.9471942 12.4165108,15.9878417 12.2970863,16.0130216 C12.3014029,15.99 12.3014029,15.9684173 12.3057194,15.945036 C13.081259,14.5047482 14.0675899,13.1432374 15.2672302,11.9033094 C14.1316187,13.0004317 13.1665108,14.2108633 12.3693885,15.4997122 C12.3715468,15.461223 12.3888129,15.4166187 12.3888129,15.3781295 C12.4078777,15.1011511 12.4208273,14.8263309 12.3952878,14.5666187 C12.3121942,14.0572662 12.1733453,13.5651799 11.7967266,13.1497122 C11.7557194,13.1644604 11.7154317,13.1795683 11.6751439,13.1943165 C11.2744245,13.8997122 11.1697482,14.5151799 11.1675899,15.0777698 C11.1848561,15.3529496 11.2467266,15.6040288 11.3298201,15.845036 C11.3978058,16.0943165 11.5215468,16.313741 11.6751439,16.5158993 C11.6963669,16.5457554 11.7175899,16.5738129 11.7409712,16.6036691 C11.2852158,17.4705755 10.9014029,18.3698561 10.5927698,19.2882014 C10.5906115,19.2795683 10.5927698,19.268777 10.5906115,19.2583453 C10.528741,18.9748921 10.4690288,18.687482 10.3773022,18.4209353 C10.1643525,17.9076259 9.90464029,17.4194964 9.43125899,17.0551079 C9.39528777,17.0784892 9.36111511,17.1018705 9.32478417,17.1256115 C9.10967626,17.934964 9.1607554,18.5979137 9.30571942,19.1817266 C9.39097122,19.4626619 9.52082734,19.7123022 9.66579137,19.9464748 C9.79780576,20.1914388 9.97910072,20.3961151 10.1834173,20.5770504 C10.1898921,20.5813669 10.1963669,20.5878417 10.2006835,20.5921583 C9.96615108,21.5040288 9.79996403,22.4310072 9.70607914,23.366259 C9.58053957,23.0914388 9.45284173,22.8184173 9.2992446,22.5734532 C8.95392086,22.0835252 8.57298561,21.6256115 8.01003597,21.3313669 C7.98017986,21.361223 7.95068345,21.3910791 7.92082734,21.4230935 C7.9078777,22.3007914 8.12730216,22.9741727 8.42154676,23.5493525 C8.58125899,23.8241727 8.77514388,24.0565468 8.98161871,24.2698561 C9.16291367,24.4784892 9.38269784,24.6360432 9.61471223,24.7766906 C9.59133094,25.6993525 9.63377698,26.6259712 9.74672662,27.5464748 C9.55931655,27.3079856 9.37370504,27.0673381 9.16938849,26.8605036 C8.69420863,26.4259712 8.19133094,26.0252518 7.5521223,25.818777 C7.52874101,25.8547482 7.50751799,25.8910791 7.48377698,25.9274101 C7.68845324,26.8284892 8.08485612,27.4784892 8.53197842,28.0090647 C8.76471223,28.2605036 9.02226619,28.4605036 9.28881295,28.637482 C9.50176259,28.797554 9.74061151,28.8997122 9.98305755,28.9914388 C10.1643525,29.8903597 10.4136331,30.7788489 10.7291007,31.6525899 C10.4884532,31.4605036 10.2517626,31.2644604 10.002482,31.1004317 C9.40140288,30.7489928 8.78557554,30.4335252 8.07838129,30.34 C8.06363309,30.3802878 8.05068345,30.4209353 8.03557554,30.4615827 C8.4726259,31.3414388 9.04348921,31.9274101 9.64241007,32.3792086 C9.94708633,32.59 10.2647122,32.7410791 10.586295,32.8691367 C10.8208273,32.9756115 11.0654317,33.0223741 11.3085971,33.0673381 C11.6920504,33.9069065 12.1434892,34.7248921 12.6593165,35.5130216 C12.373705,35.3770504 12.0906115,35.2320863 11.805,35.1256115 C11.0891727,34.8910791 10.3690288,34.6885612 9.61255396,34.7205755 C9.60823741,34.7655396 9.60392086,34.8079856 9.59960432,34.8529496 C10.2751439,35.6623022 11.0229856,36.1417986 11.7647122,36.4784892 C12.1373741,36.6295683 12.5103957,36.7191367 12.8808993,36.7831655 C13.123705,36.8364029 13.362554,36.8277698 13.6032014,36.8299281 C14.0039209,37.3414388 14.436295,37.8356835 14.8967266,38.3130216 C15.1391727,38.0702158 15.3844964,37.8252518 15.6273022,37.5820863 C15.0967266,37.0709353 14.6046403,36.5317266 14.1488849,35.9734532 C14.1251439,35.79 14.1168705,35.6133813 14.1424101,35.445036" id="Fill-8" fill="#FFB82C"></path>
                    <path d="M39.7318705,31.0963309 C39.4829496,31.2603597 39.2458993,31.4564029 39.0052518,31.6481295 C39.3207194,30.7743885 39.57,29.886259 39.751295,28.9869784 C39.9941007,28.8952518 40.2329496,28.7930935 40.4455396,28.6333813 C40.7120863,28.4564029 40.9696403,28.2560432 41.2023741,28.0046043 C41.6494964,27.4743885 42.0458993,26.8243885 42.2505755,25.9229496 C42.2271942,25.8869784 42.2056115,25.8506475 42.1822302,25.8143165 C41.5430216,26.0211511 41.0405036,26.4215108 40.564964,26.8564029 C40.3606475,27.0628777 40.175036,27.3038849 39.9876259,27.5423741 C40.1005755,26.6218705 40.1433813,25.6948921 40.1196403,24.7725899 C40.3520144,24.6319424 40.5714388,24.4740288 40.7527338,24.2653957 C40.9592086,24.0520863 41.1530935,23.8200719 41.3131655,23.5452518 C41.6070504,22.9700719 41.8264748,22.2966906 41.8135252,21.4186331 C41.7836691,21.3891367 41.7538129,21.3592806 41.7243165,21.3294245 C41.1617266,21.6233094 40.7804317,22.081223 40.4351079,22.5715108 C40.2815108,22.8164748 40.1538129,23.0891367 40.0279137,23.3639568 C39.9343885,22.428705 39.7682014,21.5020863 39.5336691,20.5898561 C39.5379856,20.5855396 39.5444604,20.5794245 39.5509353,20.5751079 C39.7552518,20.3941727 39.9365468,20.1894964 40.0689209,19.9445324 C40.2135252,19.71 40.3433813,19.4607194 40.4286331,19.1794245 C40.5714388,18.5956115 40.6228777,17.9330216 40.4074101,17.1233094 C40.3710791,17.0999281 40.3351079,17.078705 40.298777,17.054964 C39.8257554,17.4197122 39.5656835,17.907482 39.3527338,18.4207914 C39.2610072,18.6873381 39.201295,18.9747482 39.143741,19.262518 C39.1415827,19.2733094 39.143741,19.283741 39.1415827,19.2923741 C38.8329496,18.3740288 38.4494964,17.4747482 37.9933813,16.6078417 C38.0167626,16.5779856 38.0379856,16.5502878 38.0595683,16.5204317 C38.2128058,16.3179137 38.3361871,16.0984892 38.4048921,15.8492086 C38.4876259,15.6082014 38.5494964,15.3571223 38.5667626,15.0819424 C38.5642446,14.5197122 38.4599281,13.9038849 38.0595683,13.1984892 C38.0189209,13.183741 37.9782734,13.1689928 37.9379856,13.1538849 C37.5610072,13.5693525 37.4221583,14.0614388 37.3394245,14.5707914 C37.3135252,14.8308633 37.3264748,15.1056835 37.3455396,15.3826619 C37.3455396,15.4207914 37.3628058,15.4657554 37.364964,15.5038849 C36.5678417,14.215036 35.6027338,13.0046043 34.4671223,11.907482 C35.6664029,13.1474101 36.6530935,14.5089209 37.4289928,15.9492086 C37.4311511,15.9707914 37.4329496,15.9941727 37.4372662,16.0153957 C37.3178417,15.9898561 37.198777,15.9492086 37.0858273,15.8790647 C36.8556115,15.7470504 36.6379856,15.4679137 36.4038129,15.31 C36.1696403,15.1567626 35.9243165,15.1161151 35.6793525,15.11 C35.4322302,15.11 35.1872662,15.1416547 34.9336691,15.2974101 C34.9315108,15.333741 34.927554,15.3718705 34.9253957,15.4103597 C35.1423022,15.6873381 35.3638849,15.8513669 35.5876259,15.9981295 C35.8135252,16.1369784 36.0394245,16.2538849 36.2822302,16.2751079 C36.5253957,16.2945324 36.7872662,16.1984892 37.0279137,16.2603597 C37.2689209,16.3135971 37.4905036,16.4905755 37.7034532,16.7013669 C37.7441007,16.7441727 37.7869065,16.7844604 37.8271942,16.8272662 C37.8358273,16.8143165 37.846259,16.8038849 37.8548921,16.7909353 C38.3340288,17.8028058 38.7135252,18.8470504 38.9905036,19.9060432 C38.8858273,19.8506475 38.7858273,19.7930935 38.6941007,19.7056835 C38.4833094,19.5182734 38.3214388,19.1923741 38.1128058,18.981223 C37.9038129,18.7747482 37.6566906,18.6743885 37.4030935,18.6064029 C37.1473381,18.5466906 36.8833094,18.5146763 36.5829496,18.6020863 C36.57,18.6384173 36.5595683,18.6743885 36.5466187,18.7085612 C36.7110072,19.0258273 36.9045324,19.2369784 37.1048921,19.4330216 C37.3095683,19.6225899 37.5182014,19.7930935 37.767482,19.8761871 C38.0189209,19.9571223 38.3131655,19.933741 38.5494964,20.057482 C38.7901439,20.1743885 38.9818705,20.4067626 39.1548921,20.6686331 C39.1653237,20.6858993 39.1757554,20.7006475 39.1865468,20.717554 C39.4167626,21.7873381 39.5509353,22.8697122 39.5894245,23.9542446 C39.5167626,23.886259 39.4419424,23.8222302 39.3825899,23.7348201 C39.2056115,23.4876978 39.1077698,23.1233094 38.9351079,22.8610791 C38.7628058,22.6013669 38.5279137,22.4394964 38.2811511,22.3053237 C38.0297122,22.1794245 37.7631655,22.0794245 37.4351079,22.0880576 C37.4160432,22.1197122 37.3969784,22.1495683 37.377554,22.1815827 C37.4818705,22.5308633 37.6397842,22.788777 37.8077698,23.033741 C37.9807914,23.2704317 38.1617266,23.4963309 38.4002158,23.6452518 C38.641223,23.7923741 38.9476978,23.8520863 39.1653237,24.0394964 C39.3570504,24.1970504 39.4890647,24.4358993 39.6020144,24.6977698 C39.5955396,25.8078417 39.4869065,26.9157554 39.2779137,28.0067626 C39.2354676,27.9344604 39.1847482,27.8725899 39.1527338,27.7916547 C39.0246763,27.4934532 38.9969784,27.0970504 38.8753957,26.7880576 C38.7498561,26.4833813 38.5473381,26.2535252 38.3214388,26.054964 C38.091223,25.8610791 37.8376259,25.6930935 37.5056115,25.6139568 C37.4797122,25.6398561 37.4541727,25.665036 37.4289928,25.6909353 C37.4671223,26.0657554 37.5779137,26.3639568 37.701295,26.6560432 C37.8293525,26.9416547 37.9678417,27.2143165 38.1789928,27.4315827 C38.3915827,27.6445324 38.6901439,27.7916547 38.8692806,28.0409353 C38.9991367,28.2157554 39.0779137,28.4373381 39.1354676,28.6758273 C38.8818705,29.7772662 38.5239568,30.857482 38.0635252,31.9017266 C38.0466187,31.8380576 38.0167626,31.7801439 38.0059712,31.7143165 C37.9441007,31.3711511 37.9998561,30.9556835 37.9441007,30.6042446 C37.8847482,30.2546043 37.7271942,29.9693525 37.543741,29.704964 C37.3520144,29.4452518 37.1325899,29.2085612 36.8153237,29.0402158 C36.7854676,29.0614388 36.7534532,29.0805036 36.7235971,29.0999281 C36.6915827,29.4920144 36.7426619,29.8265468 36.8063309,30.1567626 C36.8768345,30.4826619 36.9577698,30.802446 37.1217986,31.081223 C37.2879856,31.3603597 37.5502158,31.5905755 37.6735971,31.8974101 C37.7502158,32.0743885 37.7822302,32.2743885 37.7951799,32.4855396 C37.2901439,33.5297842 36.6789928,34.5330216 35.9628058,35.4790647 C35.964964,35.4323022 35.9520144,35.3855396 35.9563309,35.3366187 C35.977554,34.9592806 36.1333094,34.5394964 36.1588489,34.1582014 C36.1822302,33.7790647 36.0930216,33.4402158 35.9692806,33.1182734 C35.8394245,32.7988489 35.6753957,32.4963309 35.3958993,32.2427338 C35.3620863,32.2553237 35.3279137,32.2682734 35.3002158,32.2808633 C35.1851079,32.6794245 35.1617266,33.0394964 35.151295,33.3995683 C35.1466187,33.757482 35.1530935,34.1110791 35.2469784,34.4459712 C35.3451799,34.7779856 35.5473381,35.0848201 35.5919424,35.4409353 C35.617482,35.6089209 35.6092086,35.7858993 35.5858273,35.9689928 C35.1297122,36.5276259 34.6376259,37.0664748 34.1070504,37.5779856 C34.3498561,37.8207914 34.5948201,38.0657554 34.8379856,38.3085612 C35.2980576,37.8315827 35.7304317,37.3373381 36.1311511,36.8258273 C36.3717986,36.8236691 36.6102878,36.8323022 36.8534532,36.778705 C37.2239568,36.715036 37.5969784,36.6254676 37.97,36.4743885 C38.7113669,36.1376978 39.4592086,35.6582014 40.1347482,34.8484892 C40.1304317,34.8038849 40.1261151,34.7610791 40.1217986,34.7164748 C39.3653237,34.6844604 38.6451799,34.8869784 37.9293525,35.1211511 C37.643741,35.2276259 37.3602878,35.3725899 37.075036,35.5089209 C37.5908633,34.7207914 38.0423022,33.902446 38.4257554,33.0628777 C38.6689209,33.0182734 38.9138849,32.9711511 39.1480576,32.865036 C39.4696403,32.7369784 39.7872662,32.5858993 40.0919424,32.3747482 C40.6908633,31.9229496 41.2617266,31.3369784 41.698777,30.4571223 C41.6836691,30.4164748 41.6710791,30.3761871 41.6559712,30.3355396 C40.948777,30.4294245 40.3329496,30.7445324 39.7318705,31.0963309" id="Fill-10" fill="#FFB82C"></path>
                    <polygon id="Fill-12" fill="#BF641C" points="24.5143525 35.2704317 24.5143525 19.5941727 21.4352158 21.7974101 21.4352158 17.5607194 24.5143525 15.16 28.2988849 15.16 28.2988849 35.2704317"></polygon>
                </g>
            </g>
        </g>
    </g>
</svg>